# xmcd
# 
# Track frame offsets:
#     150
#     36000
#     65725
#     84307
#     96135
#     115922
#     140275
#     154912
#     178057
#     186697
#     201240
#     229650
#     240950
# 
# Disc length: 3712
# 
# Revision: 1
# Processed by: cddbd v1.5.2PL0 Copyright (c) Steve Scherf et al.
# Submitted via: BonkEnc v1.0.6
# 
DISCID=b00e7e0d
DTITLE=Glenn Gould - モーツアルト　ピアノ・ソナタ
DYEAR=0
DGENRE=Classical
TTITLE0=ピアノ・ソナタ第11番イ長調K.331
TTITLE1=ピアノ・ソナタ第11番イ長調K.331
TTITLE2=ピアノ・ソナタ第11番イ長調K.331
TTITLE3=ピアノ・ソナタ第9番ニ長調K.311第1楽章
TTITLE4=ピアノ・ソナタ第9番ニ長調K.311第2楽章
TTITLE5=ピアノ・ソナタ第9番ニ長調K.311第3楽章
TTITLE6=ピアノ・ソナタ第2番へ長調K.280第1楽章
TTITLE7=ピアノ・ソナタ第2番へ長調K.280第2楽章
TTITLE8=ピアノ・ソナタ第2番へ長調K.280第3楽章
TTITLE9=ピアノ・ソナタ第8番イ短調K.310第1楽章
TTITLE10=ピアノ・ソナタ第8番イ短調K.310第1楽章
TTITLE11=ピアノ・ソナタ第8番イ短調K.310第3楽章
TTITLE12=幻想曲ニ短調k.397
EXTD=ID3G: 32
EXTT0=
EXTT1=
EXTT2=
EXTT3=
EXTT4=
EXTT5=
EXTT6=
EXTT7=
EXTT8=
EXTT9=
EXTT10=
EXTT11=
EXTT12=
PLAYORDER=
